<svg preserveAspectRatio="none" width="100%" height="100%" overflow="visible" style="display: block;" viewBox="0 0 11 12" fill="none" xmlns="http://www.w3.org/2000/svg">
<g id="arrow-right">
<path id="Vector (Stroke)" fill-rule="evenodd" clip-rule="evenodd" d="M5.1533 0.152021C5.35771 -0.0506736 5.68911 -0.0506736 5.89351 0.152021L10.4437 4.66413C11.1854 5.3997 11.1854 6.6003 10.4437 7.33587L5.89351 11.848C5.68911 12.0507 5.35771 12.0507 5.1533 11.848C4.9489 11.6453 4.9489 11.3167 5.1533 11.114L9.70346 6.60185C10.0364 6.27167 10.0364 5.72833 9.70346 5.39815L5.1533 0.886042C4.9489 0.683347 4.9489 0.354715 5.1533 0.152021Z" fill="var(--fill-0, #C2C2C2)"/>
<path id="Vector (Stroke)_2" fill-rule="evenodd" clip-rule="evenodd" d="M0.153303 0.152021C0.357706 -0.0506736 0.68911 -0.0506736 0.893513 0.152021L5.44367 4.66413C6.18544 5.3997 6.18544 6.6003 5.44367 7.33587L0.893513 11.848C0.68911 12.0507 0.357706 12.0507 0.153303 11.848C-0.0511009 11.6453 -0.0511009 11.3167 0.153303 11.114L4.70346 6.60185C5.03642 6.27167 5.03642 5.72833 4.70346 5.39815L0.153303 0.886042C-0.0511009 0.683347 -0.0511009 0.354715 0.153303 0.152021Z" fill="var(--fill-0, #C2C2C2)"/>
</g>
</svg>
