<svg preserveAspectRatio="none" width="100%" height="100%" overflow="visible" style="display: block;" viewBox="0 0 13.0001 14" fill="none" xmlns="http://www.w3.org/2000/svg">
<g id="Group 33">
<g id="Vector">
<mask id="path-1-inside-1_0_1105" fill="white">
<path fill-rule="evenodd" clip-rule="evenodd" d="M1.75671 1.89184C1.20313 2.488 0.906977 3.46677 0.906977 5.04651V8.95349C0.906977 10.5332 1.20313 11.512 1.75671 12.1082C2.31029 12.7043 3.21914 13.0233 4.68605 13.0233H8.31395C9.78084 13.0233 10.6897 12.7043 11.2433 12.1082C11.7969 11.512 12.093 10.5332 12.093 8.95349V5.69767C12.093 5.42796 12.2961 5.2093 12.5465 5.2093C12.797 5.2093 13 5.42796 13 5.69767V8.95349C13 10.6296 12.6915 11.9299 11.8846 12.7988C11.0778 13.6678 9.87033 14 8.31395 14H4.68605C3.12969 14 1.92227 13.6678 1.11538 12.7988C0.308493 11.9299 0 10.6296 0 8.95349V5.04651C0 3.37044 0.308493 2.07014 1.11538 1.20118C1.92227 0.332223 3.12969 0 4.68605 0H7.7093C7.95975 0 8.16279 0.218654 8.16279 0.488372C8.16279 0.75809 7.95975 0.976744 7.7093 0.976744H4.68605C3.21914 0.976744 2.31029 1.29568 1.75671 1.89184Z"/>
</mask>
<path fill-rule="evenodd" clip-rule="evenodd" d="M1.75671 1.89184C1.20313 2.488 0.906977 3.46677 0.906977 5.04651V8.95349C0.906977 10.5332 1.20313 11.512 1.75671 12.1082C2.31029 12.7043 3.21914 13.0233 4.68605 13.0233H8.31395C9.78084 13.0233 10.6897 12.7043 11.2433 12.1082C11.7969 11.512 12.093 10.5332 12.093 8.95349V5.69767C12.093 5.42796 12.2961 5.2093 12.5465 5.2093C12.797 5.2093 13 5.42796 13 5.69767V8.95349C13 10.6296 12.6915 11.9299 11.8846 12.7988C11.0778 13.6678 9.87033 14 8.31395 14H4.68605C3.12969 14 1.92227 13.6678 1.11538 12.7988C0.308493 11.9299 0 10.6296 0 8.95349V5.04651C0 3.37044 0.308493 2.07014 1.11538 1.20118C1.92227 0.332223 3.12969 0 4.68605 0H7.7093C7.95975 0 8.16279 0.218654 8.16279 0.488372C8.16279 0.75809 7.95975 0.976744 7.7093 0.976744H4.68605C3.21914 0.976744 2.31029 1.29568 1.75671 1.89184Z" fill="var(--fill-0, #666666)"/>
<path d="M1.75671 12.1082L1.02389 12.7886L1.02393 12.7886L1.75671 12.1082ZM11.2433 12.1082L11.9761 12.7887L11.9761 12.7886L11.2433 12.1082ZM11.8846 12.7988L11.1518 12.1183L11.1518 12.1184L11.8846 12.7988ZM1.11538 12.7988L1.84818 12.1184L1.84816 12.1183L1.11538 12.7988ZM1.75671 1.89184L1.02392 1.21139C0.210986 2.08686 -0.0930233 3.38233 -0.0930233 5.04651H0.906977H1.90698C1.90698 3.55121 2.19528 2.88915 2.4895 2.57229L1.75671 1.89184ZM0.906977 5.04651H-0.0930233V8.95349H0.906977H1.90698V5.04651H0.906977ZM0.906977 8.95349H-0.0930233C-0.0930233 10.6177 0.210994 11.9131 1.02389 12.7886L1.75671 12.1082L2.48953 11.4278C2.19528 11.1108 1.90698 10.4488 1.90698 8.95349H0.906977ZM1.75671 12.1082L1.02393 12.7886C1.85429 13.6828 3.10319 14.0233 4.68605 14.0233V13.0233V12.0233C3.3351 12.0233 2.76629 11.7258 2.48949 11.4277L1.75671 12.1082ZM4.68605 13.0233V14.0233H8.31395V13.0233V12.0233H4.68605V13.0233ZM8.31395 13.0233V14.0233C9.89681 14.0233 11.1457 13.6828 11.9761 12.7887L11.2433 12.1082L10.5106 11.4277C10.2337 11.7258 9.66486 12.0233 8.31395 12.0233V13.0233ZM11.2433 12.1082L11.9761 12.7886C12.789 11.9131 13.093 10.6177 13.093 8.95349H12.093H11.093C11.093 10.4488 10.8047 11.1108 10.5105 11.4278L11.2433 12.1082ZM12.093 8.95349H13.093V5.69767H12.093H11.093V8.95349H12.093ZM12.093 5.69767H13.093C13.093 5.90917 12.9168 6.2093 12.5465 6.2093V5.2093V4.2093C11.6753 4.2093 11.093 4.94674 11.093 5.69767H12.093ZM12.5465 5.2093V6.2093C12.1762 6.2093 12 5.90917 12 5.69767H13H14C14 4.94674 13.4177 4.2093 12.5465 4.2093V5.2093ZM13 5.69767H12V8.95349H13H14V5.69767H13ZM13 8.95349H12C12 10.546 11.699 11.5291 11.1518 12.1183L11.8846 12.7988L12.6174 13.4793C13.684 12.3307 14 10.7132 14 8.95349H13ZM11.8846 12.7988L11.1518 12.1184C10.6221 12.6888 9.75534 13 8.31395 13V14V15C9.98531 15 11.5334 14.6467 12.6174 13.4792L11.8846 12.7988ZM8.31395 14V13H4.68605V14V15H8.31395V14ZM4.68605 14V13C3.24469 13 2.37788 12.6888 1.84818 12.1184L1.11538 12.7988L0.382581 13.4792C1.46666 14.6467 3.01469 15 4.68605 15V14ZM1.11538 12.7988L1.84816 12.1183C1.30098 11.5291 1 10.546 1 8.95349H0H-1C-1 10.7132 -0.683999 12.3307 0.382606 13.4793L1.11538 12.7988ZM0 8.95349H1V5.04651H0H-1V8.95349H0ZM0 5.04651H1C1 3.45402 1.30098 2.47092 1.84818 1.88163L1.11538 1.20118L0.382588 0.520729C-0.683993 1.66936 -1 3.28686 -1 5.04651H0ZM1.11538 1.20118L1.84818 1.88163C2.37787 1.31119 3.24469 1 4.68605 1V0V-1C3.01469 -1 1.46667 -0.646742 0.382588 0.520729L1.11538 1.20118ZM4.68605 0V1H7.7093V0V-1H4.68605V0ZM7.7093 0V1C7.33897 1 7.16279 0.699866 7.16279 0.488372H8.16279H9.16279C9.16279 -0.262558 8.58052 -1 7.7093 -1V0ZM8.16279 0.488372H7.16279C7.16279 0.276878 7.33897 -0.0232558 7.7093 -0.0232558V0.976744V1.97674C8.58052 1.97674 9.16279 1.2393 9.16279 0.488372H8.16279ZM7.7093 0.976744V-0.0232558H4.68605V0.976744V1.97674H7.7093V0.976744ZM4.68605 0.976744V-0.0232558C3.10319 -0.0232558 1.85428 0.317156 1.02392 1.21139L1.75671 1.89184L2.4895 2.57229C2.7663 2.27421 3.3351 1.97674 4.68605 1.97674V0.976744Z" fill="var(--stroke-0, #666666)" mask="url(#path-1-inside-1_0_1105)"/>
</g>
<path id="Vector_2" fill-rule="evenodd" clip-rule="evenodd" d="M7.53579 0.0371879C7.70522 -0.0383991 7.90028 0.00337951 8.02998 0.143054L12.8672 5.35236C12.9969 5.49203 13.0357 5.70206 12.9655 5.88458C12.8953 6.0671 12.7299 6.18607 12.5465 6.18607H10.1279C9.19586 6.18607 8.43013 6.02503 7.91775 5.47325C7.40531 4.92144 7.25584 4.09684 7.25584 3.09304V0.488385C7.25584 0.290855 7.36631 0.112781 7.53579 0.0371879ZM8.16282 1.66742V3.09304C8.16282 4.04272 8.31567 4.52044 8.55905 4.78259C8.80248 5.04473 9.24605 5.20932 10.1279 5.20932H11.4517L8.16282 1.66742Z" fill="var(--fill-0, #666666)"/>
<path id="Vector_3" d="M4.89401 10.9747C4.92303 11.0164 4.93755 11.0667 4.93755 11.1258C4.93755 11.1987 4.91336 11.2578 4.86499 11.3029C4.81984 11.348 4.76824 11.3706 4.7102 11.3706C4.62958 11.3706 4.5667 11.3359 4.52155 11.2664L3.58313 9.91199L2.66406 11.2612C2.61569 11.3341 2.5528 11.3706 2.47541 11.3706C2.41736 11.3706 2.36737 11.3498 2.32545 11.3081C2.28676 11.263 2.26741 11.2126 2.26741 11.157C2.26741 11.098 2.28676 11.0407 2.32545 10.9851L3.31708 9.53171L2.32062 8.08874C2.28837 8.04361 2.27224 7.99321 2.27224 7.93767C2.27224 7.86819 2.29482 7.80919 2.33996 7.76055C2.38834 7.71191 2.44316 7.68762 2.50443 7.68762C2.5399 7.68762 2.57377 7.69628 2.60601 7.71367C2.64149 7.73105 2.67051 7.7571 2.69308 7.79181L3.62182 9.13581L4.54089 7.80744C4.59572 7.73105 4.65699 7.69283 4.72471 7.69283C4.78276 7.69283 4.83274 7.71712 4.87466 7.76576C4.91981 7.81089 4.94238 7.86298 4.94238 7.92204C4.94238 7.97413 4.92626 8.02447 4.89401 8.07311L3.88787 9.5213L4.89401 10.9747Z" fill="var(--fill-0, #666666)"/>
<path id="Vector_4" d="M7.40355 10.8653C7.47127 10.8653 7.52612 10.8879 7.56802 10.933C7.61319 10.9781 7.63574 11.0372 7.63574 11.1101C7.63574 11.1796 7.61319 11.2369 7.56802 11.282C7.52612 11.3272 7.47127 11.3498 7.40355 11.3498H5.76858C5.70086 11.3498 5.64444 11.3255 5.59927 11.2768C5.55737 11.2282 5.53639 11.1692 5.53639 11.0997V7.95329C5.53639 7.88381 5.55894 7.82482 5.60411 7.77618C5.64928 7.72754 5.70733 7.70325 5.77825 7.70325C5.84277 7.70325 5.89755 7.72754 5.94272 7.77618C5.99109 7.82482 6.01527 7.88381 6.01527 7.95329V10.8653H7.40355Z" fill="var(--fill-0, #666666)"/>
<path id="Vector_5" d="M9.2214 11.2391C8.98595 11.2391 8.77795 11.2044 8.5974 11.1349C8.41679 11.062 8.24429 10.9456 8.07982 10.7859C8.0121 10.7234 7.97818 10.6522 7.97818 10.5723C7.97818 10.5098 8.00079 10.4543 8.04596 10.4056C8.09107 10.3535 8.14428 10.3275 8.20559 10.3275C8.26037 10.3275 8.30711 10.3466 8.34581 10.3848C8.47484 10.5132 8.60702 10.6088 8.74246 10.6713C8.88117 10.7303 9.03753 10.7598 9.21167 10.7598C9.41483 10.7598 9.58577 10.7095 9.72447 10.6088C9.86632 10.508 9.93731 10.3813 9.93731 10.2285C9.93405 10.0479 9.86312 9.90897 9.72447 9.81175C9.58903 9.71102 9.38097 9.62767 9.10041 9.56171C8.76828 9.48878 8.51191 9.36896 8.33136 9.20226C8.15395 9.03557 8.06525 8.8046 8.06525 8.50943C8.06525 8.30451 8.11525 8.1257 8.21526 7.97287C8.31521 7.81659 8.45386 7.69678 8.6312 7.61343C8.80861 7.53008 9.00857 7.4884 9.23108 7.4884C9.43098 7.4884 9.61963 7.52311 9.79703 7.59259C9.97438 7.66207 10.1179 7.75408 10.2275 7.86868C10.3017 7.93816 10.3388 8.01279 10.3388 8.09268C10.3388 8.15519 10.3162 8.21074 10.2711 8.25938C10.2291 8.30802 10.1775 8.33231 10.1163 8.33231C10.0711 8.33231 10.0341 8.31844 10.005 8.29064C9.92117 8.20032 9.80507 8.12394 9.65669 8.06143C9.50837 7.99892 9.36652 7.96766 9.23108 7.96766C9.01498 7.96766 8.84247 8.0163 8.7135 8.11352C8.58773 8.20729 8.52485 8.33231 8.52485 8.48859C8.52485 8.65874 8.58773 8.78897 8.7135 8.87929C8.84247 8.9696 9.03275 9.04598 9.28429 9.1085C9.53582 9.16756 9.74056 9.23697 9.89861 9.31687C10.0598 9.39677 10.184 9.50785 10.2711 9.65026C10.3581 9.79267 10.4017 9.97845 10.4017 10.2077C10.4017 10.4091 10.3485 10.5879 10.2421 10.7442C10.1388 10.9005 9.99693 11.0221 9.81632 11.1089C9.63577 11.1957 9.43745 11.2391 9.2214 11.2391Z" fill="var(--fill-0, #666666)"/>
</g>
</svg>
