<svg preserveAspectRatio="none" width="100%" height="100%" overflow="visible" style="display: block;" viewBox="0 0 15.625 17.5" fill="none" xmlns="http://www.w3.org/2000/svg">
<path id="Subtract" fill-rule="evenodd" clip-rule="evenodd" d="M13.327 0C14.597 0 15.6248 1.01097 15.625 2.25952V4.06677C15.625 4.49803 15.4934 4.95824 15.3003 5.37109C15.1071 5.78401 14.8521 6.14933 14.6057 6.3916L10.9875 9.53857C10.8122 9.68231 10.656 9.91257 10.5432 10.1703C10.4304 10.4282 10.3613 10.714 10.3613 10.9686V14.5007C10.3613 14.8662 10.2443 15.2607 10.0543 15.6067C9.86427 15.9527 9.60076 16.2508 9.30847 16.4233L9.30298 16.427L8.15552 17.1552C7.77975 17.3849 7.35281 17.5 6.92688 17.5C6.52797 17.4999 6.13722 17.402 5.77148 17.207L5.76599 17.204L5.6311 17.1246C4.97676 16.7097 4.58755 16.019 4.5874 15.249V10.8948C4.5874 10.6893 4.51825 10.4321 4.41711 10.188C4.31666 9.94555 4.18407 9.71583 4.05579 9.55994L4.05151 9.55444L4.04663 9.54895L0.927734 6.30127L0.924072 6.29761L0.827637 6.1969C0.605897 5.95169 0.410777 5.64346 0.266113 5.32166C0.100106 4.95229 3.63687e-05 4.56422 0 4.23157V2.34192C1.3308e-05 1.02735 1.01191 1.06761e-06 2.29858 0H13.327ZM8.17749 1.2323L8.13293 1.3562C8.12034 1.39124 8.10371 1.42568 8.0835 1.45935L8.07434 1.47339L4.07654 7.77283L4.17908 7.87842L5.00488 8.73352L5.00977 8.73901C5.43423 9.25707 5.84883 10.1162 5.849 10.8856V15.2405C5.84913 15.7063 6.13754 15.9673 6.31348 16.0785L6.31958 16.0822L6.37634 16.1151L6.38123 16.1176L6.38672 16.1206L6.38916 16.1212C6.69589 16.2845 7.05771 16.3043 7.36023 16.1761L7.36633 16.1737L7.37183 16.1707L7.47498 16.1182L7.48291 16.1139L7.49023 16.1096L8.64868 15.3802L8.65601 15.3754L8.6554 15.3748C8.76963 15.3034 8.88384 15.1614 8.96973 14.9994C9.05757 14.8336 9.1156 14.6483 9.1156 14.5007V10.9686C9.1156 10.0896 9.55101 9.11988 10.1776 8.60229L10.1813 8.59924L13.7476 5.49438L13.7561 5.48584C13.8973 5.34606 14.0536 5.1112 14.1742 4.85046C14.2953 4.58858 14.3805 4.30102 14.3805 4.05884V2.25952C14.3803 1.72867 13.9694 1.28998 13.443 1.23718H13.4381L13.4332 1.23657L13.3453 1.2323H8.17749ZM2.29858 1.2323C1.71431 1.2323 1.25429 1.71691 1.25427 2.34192V4.23157C1.25434 4.38359 1.31695 4.60765 1.41907 4.83215C1.49642 5.00212 1.59582 5.17002 1.70593 5.30823L1.70898 5.3125L1.71265 5.31677L1.80969 5.42542L1.81274 5.42908L1.81702 5.43396L1.8219 5.43884L3.18726 6.85242L6.75537 1.2323H2.29858Z" fill="var(--fill-0, #28628F)"/>
</svg>
