<svg preserveAspectRatio="none" width="100%" height="100%" overflow="visible" style="display: block;" viewBox="0 0 2.5 12" fill="none" xmlns="http://www.w3.org/2000/svg">
<path id="Vector" d="M2.5 1.22251C2.5 1.55929 2.37768 1.84716 2.13304 2.08614C1.88841 2.32511 1.59406 2.44474 1.25 2.44502C0.905942 2.44531 0.611594 2.32568 0.366956 2.08614C0.122319 1.8466 0 1.55872 0 1.22251C0 0.886304 0.122319 0.598429 0.366956 0.358887C0.611594 0.119346 0.905942 -0.000282978 1.25 5.02626e-07C1.59406 0.000283984 1.88841 0.119913 2.13304 0.358887C2.37768 0.597862 2.5 0.885737 2.5 1.22251ZM2.5 6C2.5 6.33678 2.37768 6.62465 2.13304 6.86362C1.88841 7.1026 1.59406 7.22223 1.25 7.22251C0.905942 7.22279 0.611594 7.10317 0.366956 6.86362C0.122319 6.62408 0 6.33621 0 6C0 5.66379 0.122319 5.37592 0.366956 5.13637C0.611594 4.89683 0.905942 4.7772 1.25 4.77749C1.59406 4.77777 1.88841 4.8974 2.13304 5.13637C2.37768 5.37535 2.5 5.66322 2.5 6ZM2.5 10.7775C2.5 11.1143 2.37768 11.4021 2.13304 11.6411C1.88841 11.8801 1.59406 11.9997 1.25 12C0.905942 12.0003 0.611594 11.8807 0.366956 11.6411C0.122319 11.4016 0 11.1137 0 10.7775C0 10.4413 0.122319 10.1534 0.366956 9.91386C0.611594 9.67432 0.905942 9.55469 1.25 9.55498C1.59406 9.55526 1.88841 9.67489 2.13304 9.91386C2.37768 10.1528 2.5 10.4407 2.5 10.7775Z" fill="var(--fill-0, #8F8F8F)"/>
</svg>
