<svg preserveAspectRatio="none" width="100%" height="100%" overflow="visible" style="display: block;" viewBox="0 0 14 14" fill="none" xmlns="http://www.w3.org/2000/svg">
<g id="Setting">
<path id="Vector" d="M7.52848 0C8.08572 0 8.59024 0.294 8.86886 0.728C9.0044 0.938 9.09477 1.197 9.07218 1.47C9.05712 1.68 9.12489 1.89 9.24537 2.086C9.62941 2.681 10.4803 2.905 11.143 2.569C11.8885 2.163 12.8298 2.408 13.259 3.101L13.7635 3.927C14.2003 4.62 13.9593 5.509 13.2063 5.908C12.5662 6.265 12.3403 7.056 12.7243 7.658C12.8448 7.847 12.9804 8.008 13.1912 8.106C13.4548 8.239 13.6581 8.449 13.8011 8.659C14.0798 9.093 14.0572 9.625 13.7861 10.094L13.259 10.934C12.9804 11.382 12.4608 11.662 11.9261 11.662C11.6626 11.662 11.3689 11.592 11.1279 11.452C10.9321 11.333 10.7062 11.291 10.4653 11.291C9.71977 11.291 9.09477 11.872 9.07218 12.565C9.07218 13.37 8.3794 14 7.51342 14H6.48931C5.61581 14 4.92303 13.37 4.92303 12.565C4.90797 11.872 4.28296 11.291 3.53747 11.291C3.28897 11.291 3.06307 11.333 2.87481 11.452C2.63384 11.592 2.33264 11.662 2.07661 11.662C1.53443 11.662 1.01485 11.382 0.736231 10.934L0.216646 10.094C-0.0619717 9.639 -0.0770321 9.093 0.201586 8.659C0.322069 8.449 0.547976 8.239 0.804003 8.106C1.01485 8.008 1.15039 7.847 1.27841 7.658C1.65492 7.056 1.42901 6.265 0.788942 5.908C0.0434513 5.509 -0.197515 4.62 0.231707 3.927L0.736231 3.101C1.17298 2.408 2.10673 2.163 2.85975 2.569C3.51488 2.905 4.36579 2.681 4.74983 2.086C4.87032 1.89 4.93809 1.68 4.92303 1.47C4.90797 1.197 4.9908 0.938 5.13387 0.728C5.41249 0.294 5.91702 0.014 6.46672 0H7.52848ZM7.0089 5.026C5.82665 5.026 4.87032 5.908 4.87032 7.007C4.87032 8.106 5.82665 8.981 7.0089 8.981C8.19114 8.981 9.12489 8.106 9.12489 7.007C9.12489 5.908 8.19114 5.026 7.0089 5.026Z" fill="var(--fill-0, #0AA2D8)"/>
</g>
</svg>
