<svg preserveAspectRatio="none" width="100%" height="100%" overflow="visible" style="display: block;" viewBox="0 0 14 14" fill="none" xmlns="http://www.w3.org/2000/svg">
<g id="Setting">
<path id="Combined-Shape" fill-rule="evenodd" clip-rule="evenodd" d="M7.4536 0C7.97339 0 8.47865 0.198639 8.8409 0.543893C9.20243 0.891173 9.40206 1.3675 9.38682 1.85059C9.38827 1.95936 9.42674 2.08503 9.49644 2.19516C9.61186 2.37759 9.79408 2.50596 10.0104 2.55866C10.2267 2.60866 10.4532 2.58163 10.6456 2.47556C11.5748 1.98166 12.7574 2.27759 13.2881 3.13566L13.7404 3.86468C13.752 3.88427 13.7621 3.90319 13.7709 3.92278C14.2514 4.76801 13.9306 5.83215 13.0376 6.31794C12.9077 6.38753 12.8024 6.48482 12.7298 6.60238C12.6173 6.78413 12.5861 7.00034 12.6427 7.19898C12.7008 7.40167 12.8395 7.5699 13.0347 7.67395C13.4754 7.90975 13.8042 8.30703 13.9356 8.76579C14.067 9.22388 13.9952 9.72115 13.7389 10.1313L13.2569 10.8785C12.7262 11.7271 11.5436 12.021 10.6238 11.5265C10.5012 11.4609 10.3596 11.4251 10.2188 11.4217H10.2144C10.0046 11.4217 9.789 11.5048 9.63219 11.6501C9.47321 11.7981 9.38609 11.9954 9.38754 12.2048C9.38246 13.1973 8.51495 14 7.4536 14H6.54398C5.47756 14 4.61004 13.1933 4.61004 12.2008C4.60859 12.0785 4.57084 11.9515 4.50042 11.8413C4.38645 11.6562 4.20205 11.5238 3.98935 11.4711C3.7781 11.4184 3.54652 11.4474 3.35632 11.5501C2.90042 11.7866 2.36394 11.844 1.87319 11.7157C1.38317 11.5866 0.959943 11.2731 0.711667 10.8576L0.257946 10.1299C-0.272727 9.2732 0.0430634 8.17528 0.962121 7.68071C1.22274 7.54085 1.38463 7.28005 1.38463 7.00034C1.38463 6.72062 1.22274 6.45915 0.962121 6.31929C0.0423375 5.82202 -0.272727 4.72139 0.25722 3.86468L0.749417 3.11269C1.27283 2.26543 2.45613 1.9668 3.37882 2.46002C3.50441 2.52961 3.64089 2.56474 3.77955 2.56609C4.23182 2.56609 4.61004 2.21881 4.6173 1.79181C4.6144 1.32088 4.81403 0.868877 5.17774 0.527677C5.54289 0.187153 6.02783 0 6.54398 0H7.4536ZM7.4536 1.01346H6.54398C6.31894 1.01346 6.10841 1.09522 5.94943 1.24251C5.79117 1.39047 5.70478 1.58709 5.70623 1.79653C5.69099 2.78432 4.82347 3.57956 3.77301 3.57956C3.43617 3.57618 3.11167 3.49172 2.83 3.33497C2.43436 3.12552 1.91748 3.25457 1.6859 3.62955L1.19443 4.38154C0.969381 4.74504 1.10731 5.22542 1.50804 5.4423C2.10259 5.76256 2.47356 6.35983 2.47356 7.00034C2.47356 7.64085 2.10259 8.23744 1.50659 8.55837C1.10804 8.77322 0.970107 9.2509 1.20096 9.62251L1.65904 10.3576C1.77229 10.5475 1.9574 10.6846 2.17156 10.7407C2.38499 10.7961 2.6202 10.7725 2.81621 10.6711C3.10441 10.5137 3.4398 10.4319 3.77664 10.4319C3.94289 10.4319 4.10913 10.4515 4.27175 10.4921C4.76249 10.615 5.18863 10.9204 5.44126 11.3305C5.60532 11.588 5.69607 11.8886 5.69897 12.1954C5.69897 12.6345 6.07792 12.9865 6.54398 12.9865H7.4536C7.91749 12.9865 8.29643 12.6366 8.29861 12.2048C8.29571 11.7278 8.49607 11.2745 8.86268 10.9333C9.2242 10.5968 9.72947 10.3948 10.2347 10.4083C10.5658 10.4157 10.8845 10.4988 11.1654 10.6475C11.5698 10.863 12.0859 10.7346 12.3197 10.363L12.8017 9.61508C12.9091 9.44279 12.9404 9.22658 12.883 9.02727C12.8264 8.82795 12.6841 8.65499 12.4924 8.55297C12.0438 8.31244 11.7237 7.92462 11.5908 7.45977C11.4594 7.00372 11.5313 6.50577 11.7875 6.09565C11.9545 5.82539 12.1992 5.5977 12.4924 5.44095C12.8859 5.22677 13.0238 4.74774 12.7952 4.37479C12.7857 4.35992 12.777 4.34438 12.7698 4.32817L12.3444 3.64172C12.1128 3.26673 11.5973 3.13769 11.193 3.35187C10.756 3.59239 10.2362 3.66131 9.73673 3.53902C9.238 3.41875 8.81985 3.12485 8.55923 2.71C8.39226 2.45056 8.30152 2.14854 8.29861 1.84113C8.30515 1.61006 8.21803 1.40263 8.05977 1.25062C7.90224 1.09927 7.68083 1.01346 7.4536 1.01346ZM7.00199 4.712C8.35734 4.712 9.46007 5.73898 9.46007 7.00041C9.46007 8.26183 8.35734 9.28746 7.00199 9.28746C5.64663 9.28746 4.54391 8.26183 4.54391 7.00041C4.54391 5.73898 5.64663 4.712 7.00199 4.712ZM7.00199 5.72547C6.24699 5.72547 5.63284 6.29774 5.63284 7.00041C5.63284 7.70307 6.24699 8.27399 7.00199 8.27399C7.75698 8.27399 8.37114 7.70307 8.37114 7.00041C8.37114 6.29774 7.75698 5.72547 7.00199 5.72547Z" fill="var(--fill-0, #666666)"/>
</g>
</svg>
